/* XPM */
static char * trf_xpm[] = {
"32 32 3 1",
" 	c white",
".	c red",
"X	c black",
"                                ",
"                                ",
"                                ",
"                                ",
"           .........            ",
"         ..         ..          ",
"        .             .         ",
"      ..               ..       ",
"      .                 .       ",
"     .             XXXX  .      ",
"    .                XX   .     ",
"    .               X X   .     ",
"   .    ...        X  X    .    ",
"   .  ..   ..     X        .    ",
"   . .       .   X         .    ",
"   .          . X          .    ",
"   .           .           .    ",
"   .          X .          .    ",
"   .         X   .       . .    ",
"   .        X     ..   ..  .    ",
"   .       X        ...    .    ",
"    .     X               .     ",
"    .    X                .     ",
"     .  X                .      ",
"      .                 .       ",
"      ..               ..       ",
"        .             .         ",
"         ..         ..          ",
"           .........            ",
"                                ",
"                                ",
"                                "};
