/* XPM */
static char * smiley_xpm[] = {
"32 32 3 1",
" 	s None	c None",
".	c yellow",
"X	c black",
"                                ",
"          ...........           ",
"        ...............         ",
"       .................        ",
"     .....................      ",
"    .......................     ",
"    .......................     ",
"   ...XXX......X......XXX...    ",
"  ....XXX......X......XXX....   ",
"  ....XXX......X......XXX....   ",
" ..............X..............  ",
" ..............X..............  ",
" ..............X..............  ",
" ..............X..............  ",
" ..............X..............  ",
" ..............X..............  ",
" .............XXX.............  ",
" .............XXX.............  ",
" .............................  ",
" .............................  ",
" .......XXX.........XXX.......  ",
"  .......XXXXX...XXXXX.......   ",
"  .........XXXXXXXXX.........   ",
"   ..........XXXXX..........    ",
"    .......................     ",
"    .......................     ",
"     .....................      ",
"       .................        ",
"        ...............         ",
"          ...........           ",
"                                ",
"                                "};
