/* XPM */
static char * smiley16_xpm[] = {
"16 16 3 1",
" 	s None	c None",
".	c yellow",
"X	c black",
"                ",
"    ........    ",
"   ..........   ",
"  ............  ",
" ..X........X.. ",
" ...X......X... ",
" .............. ",
" .............. ",
" .............. ",
" .............. ",
" ..........X... ",
" ...X.....X.... ",
"  ...XXXXX....  ",
"   ..........   ",
"    ........    ",
"                "};
